<?xml version="1.0" standalone="no"?>
<svg viewBox="0 0 200 200" xmlns="http://www.w3.org/2000/svg">
  <path fill="#F2F4F8" d="M28.1,-44.3C32.7,-46.1,30,-30.9,26.8,-20.7C23.5,-10.5,19.8,-5.2,18.1,-1C16.4,3.3,16.7,6.5,19.6,16.2C22.5,25.9,28,41.9,25.1,41C22.3,40.1,11.2,22.2,-2.4,26.4C-16,30.6,-32,56.9,-34.7,57.7C-37.4,58.6,-26.8,34,-30.6,20.1C-34.3,6.2,-52.4,3.1,-60.1,-4.4C-67.7,-12,-64.9,-23.9,-56.7,-30C-48.4,-36.1,-34.7,-36.3,-24.4,-31.1C-14,-25.9,-7,-15.3,2.4,-19.5C11.8,-23.6,23.6,-42.4,28.1,-44.3Z" transform="translate(100 100)" />
</svg>
